<?xml version="1.0" encoding="utf-8"?>
<!-- Generator: Adobe Illustrator 20.1.0, SVG Export Plug-In . SVG Version: 6.00 Build 0)  -->
<svg version="1.1" id="Слой_1" xmlns="http://www.w3.org/2000/svg" xmlns:xlink="http://www.w3.org/1999/xlink" x="0px" y="0px"
	 width="6.9px" height="8.3px" viewBox="0 0 6.9 8.3" enable-background="new 0 0 6.9 8.3" xml:space="preserve">
<g>
	<path fill="#FFFFFF" d="M0.5,2.7c-0.1,0-0.3,0-0.4,0.1S0,3,0,3.2v2.1c0,0.1,0,0.3,0.1,0.4c0.1,0.1,0.2,0.1,0.4,0.1
		c0.1,0,0.3,0,0.4-0.1S1,5.5,1,5.3V3.2c0-0.1,0-0.3-0.1-0.4C0.7,2.7,0.6,2.7,0.5,2.7"/>
	<path fill="#FFFFFF" d="M4.6,0.8L5,0.1V0H4.9L4.5,0.7c-0.3-0.1-0.6-0.2-1-0.2s-0.7,0.1-1,0.2L2.1,0H2v0.1l0.4,0.7
		C2,1,1.8,1.2,1.5,1.6C1.3,1.9,1.2,2.3,1.2,2.7h4.6c0-0.4-0.1-0.7-0.3-1.1C5.2,1.2,4.9,0.9,4.6,0.8 M2.5,1.7L2.4,1.8
		c-0.1,0-0.1,0-0.1-0.1L2.2,1.6c0-0.1,0-0.1,0.1-0.1l0.1-0.1c0.1,0,0.1,0,0.1,0.1l0.1,0.1C2.6,1.6,2.6,1.7,2.5,1.7 M4.6,1.7L4.5,1.8
		c-0.1,0-0.1,0-0.1-0.1L4.3,1.6c0-0.1,0-0.1,0.1-0.1l0.1-0.1c0.1,0,0.1,0,0.1,0.1l0.1,0.1C4.7,1.6,4.7,1.7,4.6,1.7"/>
	<path fill="#FFFFFF" d="M1.2,6.1c0,0.2,0.1,0.3,0.2,0.4c0.1,0.1,0.2,0.2,0.4,0.2h0.4v1.1c0,0.1,0,0.3,0.1,0.4
		c0.1,0.1,0.2,0.1,0.4,0.1c0.1,0,0.3,0,0.4-0.1S3.2,8,3.2,7.8V6.7h0.7v1.1c0,0.1,0,0.3,0.1,0.4c0.1,0.1,0.2,0.1,0.4,0.1
		c0.1,0,0.3,0,0.4-0.1S4.9,8,4.9,7.8V6.7h0.4c0.1,0,0.3-0.1,0.4-0.2c0.1-0.1,0.2-0.2,0.2-0.4V2.8H1.2V6.1z"/>
	<path fill="#FFFFFF" d="M6.4,2.7c-0.1,0-0.3,0-0.4,0.1S5.9,3,5.9,3.2v2.1c0,0.1,0,0.3,0.1,0.4c0.1,0.1,0.2,0.1,0.4,0.1
		c0.1,0,0.3,0,0.4-0.1s0.1-0.2,0.1-0.4V3.2c0-0.1,0-0.3-0.1-0.4C6.7,2.7,6.6,2.7,6.4,2.7"/>
</g>
</svg>
