<?xml version="1.0" encoding="utf-8"?>
<!-- Generator: Adobe Illustrator 20.1.0, SVG Export Plug-In . SVG Version: 6.00 Build 0)  -->
<svg version="1.1" id="Слой_1" xmlns="http://www.w3.org/2000/svg" xmlns:xlink="http://www.w3.org/1999/xlink" x="0px" y="0px"
	 width="6.8px" height="8.3px" viewBox="0 0 6.8 8.3" enable-background="new 0 0 6.8 8.3" xml:space="preserve">
<g>
	<path fill="#FFFFFF" d="M3.8,0.7C4.3,0,5.1,0,5.1,0s0.1,0.7-0.4,1.3C4.1,2,3.5,1.9,3.5,1.9S3.3,1.4,3.8,0.7"/>
	<path fill="#FFFFFF" d="M3.5,2.4C3.8,2.4,4.3,2,5,2c1.2,0,1.6,0.8,1.6,0.8S5.7,3.3,5.7,4.4c0,1.3,1.1,1.7,1.1,1.7S6,8.3,5,8.3
		C4.5,8.3,4.1,8,3.6,8s-1,0.3-1.4,0.3C1.2,8.3,0,6.2,0,4.5C0,2.9,1,2,2,2C2.7,2,3.1,2.4,3.5,2.4"/>
</g>
</svg>
