<svg xmlns="http://www.w3.org/2000/svg" width="439.69" height="80.662" viewBox="0 0 439.69 80.662">
  <g id="Group_59" data-name="Group 59" transform="translate(-666.254 -68.224)">
    <path id="Path_2195" data-name="Path 2195" d="M1156.85,95.406h-1.866a5.962,5.962,0,0,0-5.8,4.678l-2.271,10.274a3.163,3.163,0,0,1-3.078,2.488h-6.121c-1.81,0-3.061-.418-3.72-1.24a4.176,4.176,0,0,1-.457-3.395l4.538-21.273c.516-2.378,2.112-5.214,6.8-5.214h17.309a5.927,5.927,0,1,0,0-11.854h-21.846c-5.728,0-13.165,3.407-15.259,13.017l-5.954,28.283c-.917,4.193-.387,7.549,1.57,9.978,2.629,3.267,6.877,3.619,8.579,3.619h23.762a5.957,5.957,0,0,0,5.8-4.7l3.8-17.5a5.929,5.929,0,0,0-5.795-7.162" transform="translate(-113.825 -0.414)" fill="#fff"/>
    <path id="Path_2196" data-name="Path 2196" d="M1233.654,73.486c-2.631-3.266-6.877-3.619-8.578-3.619h-22.482a11.633,11.633,0,0,0-11.377,9.214l-9.329,43.965a1.423,1.423,0,0,0,1.394,1.719h10.607a1.715,1.715,0,0,0,1.68-1.359l4.039-19.132h6.983l5.624,19.118a1.916,1.916,0,0,0,1.838,1.373H1226.2a1.236,1.236,0,0,0,1.189-1.576l-5.52-19.361c3.48-.833,9.867-3.579,11.729-12.572l1.629-7.792c.915-4.19.387-7.546-1.57-9.979M1220.81,86.349l-.138.775c-.53,2.383-2.137,5.224-6.8,5.224h-11.689l1.656-7.84a3.535,3.535,0,0,1,3.443-2.786h9.427c1.78,0,3.008.406,3.655,1.206a4.265,4.265,0,0,1,.448,3.42" transform="translate(-129.716 -0.413)" fill="#fff"/>
    <path id="Path_2197" data-name="Path 2197" d="M690.443,124.684a2.862,2.862,0,0,1-1.706.32H677.458c-1.217,0-1.706-.53-1.456-1.592l9.113-38.928a23.637,23.637,0,0,1,2.108-5.6,17.736,17.736,0,0,1,3.714-4.845,17.364,17.364,0,0,1,5.522-3.38,20.246,20.246,0,0,1,7.439-1.271h24.16c.636,0,1.025.1,1.166.284s.106.724-.106,1.623l-2.1,8.979a2.717,2.717,0,0,1-.645,1.391,1.892,1.892,0,0,1-1.275.358H705.477a6.891,6.891,0,0,0-2.644.438,4.87,4.87,0,0,0-1.682,1.069,4.724,4.724,0,0,0-.974,1.432,9.379,9.379,0,0,0-.53,1.586L698.5,91.473h20.892c.635,0,1.021.11,1.158.317a2.873,2.873,0,0,1-.115,1.669l-1.935,8.265c-.284,1.217-.927,1.829-1.935,1.829H695.67l-4.651,19.861a2.525,2.525,0,0,1-.577,1.272" transform="translate(-2.437 -0.292)" fill="#fff"/>
    <path id="Path_2198" data-name="Path 2198" d="M797.575,96.823a54.165,54.165,0,0,1-4.244,12,32.323,32.323,0,0,1-6.605,9.057,27,27,0,0,1-9.242,5.721,34.355,34.355,0,0,1-12.068,1.985A25.908,25.908,0,0,1,754.7,123.64,13.841,13.841,0,0,1,748.283,118a19.3,19.3,0,0,1-2.378-9.024,44.778,44.778,0,0,1,1.335-12,47.488,47.488,0,0,1,4.405-11.833,35.419,35.419,0,0,1,6.892-9.1,28.481,28.481,0,0,1,9.185-5.8,30.85,30.85,0,0,1,11.357-2.022,24.817,24.817,0,0,1,10.688,2.022A14.883,14.883,0,0,1,796.29,76a19.132,19.132,0,0,1,2.535,9.018,42.7,42.7,0,0,1-1.25,11.8m-15.834.079a45.946,45.946,0,0,0,.869-5.918,14.628,14.628,0,0,0-.325-4.889,6.111,6.111,0,0,0-2.09-3.294,6.755,6.755,0,0,0-4.317-1.234,8.4,8.4,0,0,0-4.333,1.193,12.942,12.942,0,0,0-3.612,3.22A21.8,21.8,0,0,0,765.16,90.7a31.828,31.828,0,0,0-1.878,5.645,42.838,42.838,0,0,0-1.066,6.592,13.435,13.435,0,0,0,.429,4.967,5.845,5.845,0,0,0,2.2,3.135,7.225,7.225,0,0,0,4.271,1.118,8.8,8.8,0,0,0,4.657-1.236,12.084,12.084,0,0,0,3.559-3.334,21.737,21.737,0,0,0,2.611-4.884,42.228,42.228,0,0,0,1.8-5.8" transform="translate(-20.032)" fill="#fff"/>
    <path id="Path_2199" data-name="Path 2199" d="M939.149,94.654a9.119,9.119,0,0,1,3.205,2.419,10.1,10.1,0,0,1,1.783,3.262,11.865,11.865,0,0,1,.549,3.734,17.021,17.021,0,0,1-.464,3.848,19.869,19.869,0,0,1-3.1,6.957,22.641,22.641,0,0,1-5.361,5.4,24.875,24.875,0,0,1-6.97,3.493A25.738,25.738,0,0,1,920.838,125H900.183c-2.173,0-3.482-.407-3.925-1.231s-.444-2.159-.012-4.011l10.563-45.13a8.3,8.3,0,0,1,1.876-3.929c.837-.879,2.347-1.316,4.516-1.316h20.659a24.783,24.783,0,0,1,6.486.794,11.419,11.419,0,0,1,4.807,2.545,9.157,9.157,0,0,1,2.617,4.449,13.54,13.54,0,0,1-.178,6.513,14.921,14.921,0,0,1-3.074,6,17.687,17.687,0,0,1-5.255,4.491Zm-20.894-4.765h8.292a6.75,6.75,0,0,0,3.11-.8,4.381,4.381,0,0,0,2.064-3.1,3.012,3.012,0,0,0-.417-2.781,3.378,3.378,0,0,0-2.658-.95h-8.6Zm10.716,17a4.509,4.509,0,0,0-.5-3.773,4.156,4.156,0,0,0-3.646-1.473H915.5l-2.437,10.41h9.322a7.089,7.089,0,0,0,2.726-.477,6.4,6.4,0,0,0,1.953-1.272,6.475,6.475,0,0,0,1.263-1.668,8.081,8.081,0,0,0,.639-1.748" transform="translate(-57.781 -0.292)" fill="#fff"/>
    <path id="Path_2200" data-name="Path 2200" d="M1006,125H981.449a16.728,16.728,0,0,1-7.428-1.348,8.724,8.724,0,0,1-3.86-3.536,10.043,10.043,0,0,1-1.2-4.89c-.006-1.8,6.561-30.744,6.561-30.744a23.758,23.758,0,0,1,2.108-5.6,17.791,17.791,0,0,1,3.717-4.845,17.355,17.355,0,0,1,5.519-3.381,20.269,20.269,0,0,1,7.446-1.271h23.438c.639,0,1.023.1,1.165.284s.1.727-.1,1.623l-2.1,8.983a2.685,2.685,0,0,1-.653,1.386,1.88,1.88,0,0,1-1.272.356H995.885a6.854,6.854,0,0,0-2.643.44,4.8,4.8,0,0,0-1.686,1.074,4.613,4.613,0,0,0-.974,1.427,9.889,9.889,0,0,0-.53,1.586l-.782,3.339h21.3c.635,0,1.019.111,1.157.317a2.884,2.884,0,0,1-.119,1.674l-1.93,8.26c-.29,1.216-.933,1.825-1.938,1.825h-21.3l-1.391,5.961a6.149,6.149,0,0,0-.2,2.386,2.043,2.043,0,0,0,.684,1.308,2.783,2.783,0,0,0,1.377.558,13.789,13.789,0,0,0,1.879.116h20.184c.638,0,1.022.1,1.167.283s.109.727-.1,1.626l-2.105,8.981C1007.659,124.395,1007,125,1006,125" transform="translate(-76.155 -0.292)" fill="#fff"/>
    <path id="Path_2201" data-name="Path 2201" d="M1086.209,82.022h-13.584l-9.675,41.316a1.746,1.746,0,0,1-2.3,1.668h-11.285q-1.825,0-1.426-1.668l9.667-41.316h-13.272q-1.669,0-1.239-1.825l2.077-8.9a2.813,2.813,0,0,1,.743-1.629,2.559,2.559,0,0,1,1.375-.278h41.878a1.883,1.883,0,0,1,1.239.278c.2.187.187.727-.022,1.629l-2.084,8.9a2.034,2.034,0,0,1-2.094,1.825" transform="translate(-94.785 -0.293)" fill="#fff"/>
    <path id="Path_2202" data-name="Path 2202" d="M1088.108,130.624a8.242,8.242,0,0,1,.958-2.764,8.69,8.69,0,0,1,1.807-2.267,8.05,8.05,0,0,1,2.454-1.5,7.848,7.848,0,0,1,2.842-.536,5.852,5.852,0,0,1,4.682,2.072,6.133,6.133,0,0,1,1.385,4.993,8.445,8.445,0,0,1-2.805,5.028,8.66,8.66,0,0,1-2.454,1.5,7.513,7.513,0,0,1-2.8.536,6.645,6.645,0,0,1-2.69-.536,5.474,5.474,0,0,1-2.033-1.5,6.179,6.179,0,0,1-1.192-2.265,6.246,6.246,0,0,1-.152-2.763" transform="translate(-106.109 -13.921)" fill="#fff"/>
    <g id="Group_55" data-name="Group 55" transform="translate(666.254 69.098)">
      <path id="Path_2203" data-name="Path 2203" d="M838.909,94.9l-6.793,28.439a2.743,2.743,0,0,1-.585,1.315,2.7,2.7,0,0,1-1.715.358H818.534c-1.22,0-1.7-.555-1.429-1.673l11.379-47.662c.595-2.49,1.4-4.164,2.429-5.009s2.645-1.272,4.866-1.272h4.13a15.007,15.007,0,0,1,2.04.12,4.45,4.45,0,0,1,1.51.479,3.775,3.775,0,0,1,1.216,1.069,12.052,12.052,0,0,1,1.135,1.909l7.3,17L857,99.663h.557l6.823-28.6a2.8,2.8,0,0,1,.591-1.312,2.688,2.688,0,0,1,1.711-.356h11.282c1.217,0,1.7.558,1.429,1.668l-11.375,47.671a10.489,10.489,0,0,1-2.183,4.485q-1.538,1.793-5.112,1.792h-4.131a14.7,14.7,0,0,1-2-.121,4.443,4.443,0,0,1-1.555-.475,4.085,4.085,0,0,1-1.254-1.076,8.029,8.029,0,0,1-1.1-1.906l-7.215-16.681-4-9.851Z" transform="translate(-704.187 -69.392)" fill="#fff"/>
      <g id="Group_54" data-name="Group 54" transform="translate(0 70.863)">
        <g id="Group_53" data-name="Group 53">
          <path id="Path_2204" data-name="Path 2204" d="M672.548,171.661V172.9h-6.293v-.314l2.8-4.109-2.8-3.9v-.314h6.136v1.242h-3.833l2.054,2.8v.314l-2.094,3.036Z" transform="translate(-666.254 -164.125)" fill="#fff"/>
          <path id="Path_2205" data-name="Path 2205" d="M683.553,165.511h-2.918V172.9h-1.387v-7.393h-2.905v-1.242h7.21Z" transform="translate(-668.792 -164.125)" fill="#fff"/>
          <path id="Path_2206" data-name="Path 2206" d="M695.448,165.365a4.454,4.454,0,0,1,0,6.347,4.648,4.648,0,0,1-6.424,0,4.486,4.486,0,0,1,0-6.347,4.648,4.648,0,0,1,6.424,0Zm-5.423.884a3.135,3.135,0,0,0-.877,2.277,3.175,3.175,0,0,0,.877,2.3,3.167,3.167,0,0,0,4.442,0,3.161,3.161,0,0,0,.883-2.3,3.115,3.115,0,0,0-.89-2.271,3.166,3.166,0,0,0-4.435-.006Z" transform="translate(-671.652 -164.076)" fill="#fff"/>
          <path id="Path_2207" data-name="Path 2207" d="M704.135,172.9h-1.388v-8.635h1.388Z" transform="translate(-675.435 -164.125)" fill="#fff"/>
          <path id="Path_2208" data-name="Path 2208" d="M712.907,172.9l-2.093-3.218-2.081,3.218h-1.6l2.917-4.409-2.735-4.226h1.6l1.911,3.062,1.884-3.062h1.584l-2.683,4.239,2.879,4.4Z" transform="translate(-676.539 -164.125)" fill="#fff"/>
          <path id="Path_2209" data-name="Path 2209" d="M726.634,172.9h-1.387v-3.952H720.9V172.9h-1.388v-8.635H720.9v3.441h4.344v-3.441h1.387Z" transform="translate(-679.654 -164.125)" fill="#fff"/>
          <path id="Path_2210" data-name="Path 2210" d="M740.853,164.076v8.78h-1.388v-5.417l-2.473,3.245h-.471l-2.485-3.245v5.417h-1.388v-8.78h.484l3.625,4.828,3.625-4.828Z" transform="translate(-682.958 -164.076)" fill="#fff"/>
          <path id="Path_2211" data-name="Path 2211" d="M752.128,171.416h-3.886l-.615,1.439h-1.479l3.808-8.78h.471l3.808,8.78h-1.492Zm-1.937-4.776-1.439,3.585h2.866Z" transform="translate(-686.354 -164.076)" fill="#fff"/>
          <path id="Path_2212" data-name="Path 2212" d="M772.068,172.9h-1.387v-8.635h1.387Z" transform="translate(-692.526 -164.125)" fill="#fff"/>
          <path id="Path_2213" data-name="Path 2213" d="M783.119,171.661h3.952V172.9h-5.338v-8.635h1.387Z" transform="translate(-695.306 -164.125)" fill="#fff"/>
          <path id="Path_2214" data-name="Path 2214" d="M792.824,172.9h-1.387v-8.635h1.387Z" transform="translate(-697.748 -164.125)" fill="#fff"/>
          <path id="Path_2215" data-name="Path 2215" d="M803.912,164.269l-3.807,8.78h-.471l-3.808-8.78h1.557l2.485,6.005,2.486-6.005Z" transform="translate(-698.852 -164.125)" fill="#fff"/>
          <path id="Path_2216" data-name="Path 2216" d="M814.846,165.511h-4.291v2.212h3.232v1.2h-3.232v2.734H815V172.9h-5.835v-8.635h5.678Z" transform="translate(-702.209 -164.125)" fill="#fff"/>
          <path id="Path_2217" data-name="Path 2217" d="M831.146,171.661V172.9h-6.293v-.314l2.8-4.109-2.8-3.9v-.314h6.136v1.242h-3.833l2.054,2.8v.314l-2.094,3.036Z" transform="translate(-706.155 -164.125)" fill="#fff"/>
          <path id="Path_2218" data-name="Path 2218" d="M842.152,165.511h-2.918V172.9h-1.387v-7.393h-2.905v-1.242h7.21Z" transform="translate(-708.693 -164.125)" fill="#fff"/>
          <path id="Path_2219" data-name="Path 2219" d="M854.047,165.365a4.454,4.454,0,0,1,0,6.347,4.648,4.648,0,0,1-6.424,0,4.486,4.486,0,0,1,0-6.347,4.648,4.648,0,0,1,6.424,0Zm-5.424.884a3.138,3.138,0,0,0-.876,2.277,3.178,3.178,0,0,0,.876,2.3,3.168,3.168,0,0,0,4.443,0,3.161,3.161,0,0,0,.883-2.3,3.115,3.115,0,0,0-.89-2.271,3.167,3.167,0,0,0-4.436-.006Z" transform="translate(-711.552 -164.076)" fill="#fff"/>
          <path id="Path_2220" data-name="Path 2220" d="M862.734,172.9h-1.388v-8.635h1.388Z" transform="translate(-715.336 -164.125)" fill="#fff"/>
          <path id="Path_2221" data-name="Path 2221" d="M871.505,172.9l-2.093-3.218-2.081,3.218h-1.6l2.918-4.409-2.735-4.226h1.6l1.911,3.062,1.884-3.062h1.584l-2.683,4.239,2.879,4.4Z" transform="translate(-716.44 -164.125)" fill="#fff"/>
          <path id="Path_2222" data-name="Path 2222" d="M885.233,172.9h-1.387v-3.952H879.5V172.9h-1.387v-8.635H879.5v3.441h4.344v-3.441h1.387Z" transform="translate(-719.554 -164.125)" fill="#fff"/>
          <path id="Path_2223" data-name="Path 2223" d="M899.451,164.076v8.78h-1.387v-5.417l-2.473,3.245h-.472l-2.485-3.245v5.417h-1.388v-8.78h.484l3.625,4.828,3.625-4.828Z" transform="translate(-722.858 -164.076)" fill="#fff"/>
          <path id="Path_2224" data-name="Path 2224" d="M910.727,171.416H906.84l-.615,1.439h-1.479l3.807-8.78h.471l3.807,8.78h-1.492Zm-1.937-4.776-1.439,3.585h2.866Z" transform="translate(-726.255 -164.076)" fill="#fff"/>
          <path id="Path_2225" data-name="Path 2225" d="M930.667,172.9H929.28v-8.635h1.387Z" transform="translate(-732.427 -164.125)" fill="#fff"/>
          <path id="Path_2226" data-name="Path 2226" d="M946.338,164.613a4.072,4.072,0,0,1,1.537,1.453l-1.047.772a3.124,3.124,0,0,0-4.867-.582,3.375,3.375,0,0,0,0,4.567,3.124,3.124,0,0,0,4.867-.582l1.047.772a3.968,3.968,0,0,1-1.525,1.453,4.694,4.694,0,0,1-5.4-.746,4.486,4.486,0,0,1,.007-6.353,4.654,4.654,0,0,1,5.384-.752Z" transform="translate(-735.031 -164.076)" fill="#fff"/>
          <path id="Path_2227" data-name="Path 2227" d="M958.482,171.416H954.6l-.615,1.439H952.5l3.807-8.78h.471l3.807,8.78H959.1Zm-1.937-4.776-1.439,3.585h2.866Z" transform="translate(-738.269 -164.076)" fill="#fff"/>
          <path id="Path_2228" data-name="Path 2228" d="M969.889,164.5a3.077,3.077,0,0,1,1.138,1.119l-.968.746a2.1,2.1,0,0,0-1.818-1.047,1.57,1.57,0,0,0-.93.269.893.893,0,0,0-.379.778.849.849,0,0,0,.275.68,4.5,4.5,0,0,0,.93.549l.968.445a4.812,4.812,0,0,1,1.557,1.046,2.028,2.028,0,0,1,.51,1.414,2.251,2.251,0,0,1-.818,1.812,3.114,3.114,0,0,1-2.074.687,3.712,3.712,0,0,1-1.91-.5,3.644,3.644,0,0,1-1.349-1.373l.982-.746a2.738,2.738,0,0,0,2.264,1.374,1.687,1.687,0,0,0,1.079-.327,1.063,1.063,0,0,0,.412-.877.913.913,0,0,0-.295-.719,4.128,4.128,0,0,0-.974-.576l-.956-.445a4.634,4.634,0,0,1-1.485-.995,1.962,1.962,0,0,1-.53-1.4,2.091,2.091,0,0,1,.785-1.694,2.943,2.943,0,0,1,1.937-.648A3.226,3.226,0,0,1,969.889,164.5Z" transform="translate(-741.419 -164.076)" fill="#fff"/>
          <path id="Path_2229" data-name="Path 2229" d="M977.7,172.9h-1.387v-8.635H977.7Z" transform="translate(-744.26 -164.125)" fill="#fff"/>
          <path id="Path_2230" data-name="Path 2230" d="M988.891,164.22V173h-.471l-5.26-5.98v5.835h-1.387v-8.78h.484l5.247,5.967V164.22Z" transform="translate(-745.633 -164.076)" fill="#fff"/>
          <path id="Path_2231" data-name="Path 2231" d="M1001.945,165.365a4.456,4.456,0,0,1,0,6.347,4.648,4.648,0,0,1-6.424,0,4.486,4.486,0,0,1,0-6.347,4.648,4.648,0,0,1,6.424,0Zm-5.424.884a3.134,3.134,0,0,0-.876,2.277,3.174,3.174,0,0,0,.876,2.3,3.167,3.167,0,0,0,4.442,0,3.161,3.161,0,0,0,.883-2.3,3.118,3.118,0,0,0-.889-2.271,3.167,3.167,0,0,0-4.436-.006Z" transform="translate(-748.761 -164.076)" fill="#fff"/>
          <path id="Path_2232" data-name="Path 2232" d="M1021.822,172.9h-1.387v-8.635h1.387Z" transform="translate(-755.359 -164.125)" fill="#fff"/>
          <path id="Path_2233" data-name="Path 2233" d="M1032.873,171.661h3.952V172.9h-5.339v-8.635h1.387Z" transform="translate(-758.14 -164.125)" fill="#fff"/>
          <path id="Path_2234" data-name="Path 2234" d="M1042.578,172.9h-1.387v-8.635h1.387Z" transform="translate(-760.581 -164.125)" fill="#fff"/>
          <path id="Path_2235" data-name="Path 2235" d="M1053.666,164.269l-3.807,8.78h-.471l-3.808-8.78h1.557l2.486,6.005,2.486-6.005Z" transform="translate(-761.686 -164.125)" fill="#fff"/>
          <path id="Path_2236" data-name="Path 2236" d="M1064.6,165.511h-4.292v2.212h3.232v1.2h-3.232v2.734h4.449V172.9h-5.835v-8.635h5.678Z" transform="translate(-765.042 -164.125)" fill="#fff"/>
          <path id="Path_2237" data-name="Path 2237" d="M1081.173,164.613a4.073,4.073,0,0,1,1.537,1.453l-1.047.772a3.124,3.124,0,0,0-4.867-.582,3.375,3.375,0,0,0,0,4.567,3.124,3.124,0,0,0,4.867-.582l1.047.772a3.978,3.978,0,0,1-1.525,1.453,4.693,4.693,0,0,1-5.4-.746,4.486,4.486,0,0,1,.006-6.353,4.655,4.655,0,0,1,5.385-.752Z" transform="translate(-768.953 -164.076)" fill="#fff"/>
          <path id="Path_2238" data-name="Path 2238" d="M1093.317,171.416h-3.887l-.615,1.439h-1.478l3.808-8.78h.471l3.807,8.78h-1.492Zm-1.937-4.776-1.439,3.585h2.866Z" transform="translate(-772.191 -164.076)" fill="#fff"/>
          <path id="Path_2239" data-name="Path 2239" d="M1104.724,164.5a3.077,3.077,0,0,1,1.138,1.119l-.968.746a2.1,2.1,0,0,0-1.819-1.047,1.568,1.568,0,0,0-.929.269.892.892,0,0,0-.379.778.847.847,0,0,0,.275.68,4.515,4.515,0,0,0,.929.549l.969.445a4.82,4.82,0,0,1,1.557,1.046,2.028,2.028,0,0,1,.51,1.414,2.251,2.251,0,0,1-.818,1.812,3.114,3.114,0,0,1-2.074.687,3.715,3.715,0,0,1-1.911-.5,3.645,3.645,0,0,1-1.348-1.373l.982-.746a2.738,2.738,0,0,0,2.263,1.374,1.687,1.687,0,0,0,1.08-.327,1.063,1.063,0,0,0,.412-.877.913.913,0,0,0-.294-.719,4.132,4.132,0,0,0-.974-.576l-.956-.445a4.633,4.633,0,0,1-1.485-.995,1.962,1.962,0,0,1-.53-1.4,2.091,2.091,0,0,1,.785-1.694,2.942,2.942,0,0,1,1.936-.648A3.23,3.23,0,0,1,1104.724,164.5Z" transform="translate(-775.34 -164.076)" fill="#fff"/>
          <path id="Path_2240" data-name="Path 2240" d="M1112.54,172.9h-1.388v-8.635h1.388Z" transform="translate(-778.182 -164.125)" fill="#fff"/>
          <path id="Path_2241" data-name="Path 2241" d="M1123.726,164.22V173h-.471l-5.261-5.98v5.835h-1.387v-8.78h.484l5.247,5.967V164.22Z" transform="translate(-779.555 -164.076)" fill="#fff"/>
          <path id="Path_2242" data-name="Path 2242" d="M1136.781,165.365a4.454,4.454,0,0,1,0,6.347,4.648,4.648,0,0,1-6.424,0,4.486,4.486,0,0,1,0-6.347,4.648,4.648,0,0,1,6.424,0Zm-5.423.884a3.132,3.132,0,0,0-.877,2.277,3.172,3.172,0,0,0,.877,2.3,3.167,3.167,0,0,0,4.442,0,3.161,3.161,0,0,0,.883-2.3,3.115,3.115,0,0,0-.89-2.271,3.166,3.166,0,0,0-4.435-.006Z" transform="translate(-782.683 -164.076)" fill="#fff"/>
          <path id="Path_2243" data-name="Path 2243" d="M1156.657,172.9h-1.387v-8.635h1.387Z" transform="translate(-789.281 -164.125)" fill="#fff"/>
          <path id="Path_2244" data-name="Path 2244" d="M1173.341,164.269l-3.807,8.78h-.471l-3.808-8.78h1.557l2.486,6.005,2.486-6.005Z" transform="translate(-791.794 -164.125)" fill="#fff"/>
          <path id="Path_2245" data-name="Path 2245" d="M1179.984,172.9H1178.6v-8.635h1.387Z" transform="translate(-795.15 -164.125)" fill="#fff"/>
          <path id="Path_2246" data-name="Path 2246" d="M1189.482,172.9l-2.46-3.336h-1.583V172.9h-1.387v-8.635h3.153a3.04,3.04,0,0,1,2.12.733,2.451,2.451,0,0,1,.811,1.91,2.579,2.579,0,0,1-.438,1.492,2.54,2.54,0,0,1-1.224.942l2.591,3.559Zm-4.043-4.566h1.74a1.551,1.551,0,0,0,1.125-.393,1.356,1.356,0,0,0,.405-1.02,1.372,1.372,0,0,0-.405-1.034,1.551,1.551,0,0,0-1.125-.393h-1.74Z" transform="translate(-796.522 -164.125)" fill="#fff"/>
          <path id="Path_2247" data-name="Path 2247" d="M1201.824,165.511h-2.918V172.9h-1.387v-7.393h-2.9v-1.242h7.209Z" transform="translate(-799.18 -164.125)" fill="#fff"/>
          <path id="Path_2248" data-name="Path 2248" d="M1213.648,169.411a3.57,3.57,0,0,1-.988,2.662,3.47,3.47,0,0,1-2.545.975,3.508,3.508,0,0,1-2.572-.975,3.57,3.57,0,0,1-.987-2.662v-5.142h1.386V169.5a2.24,2.24,0,0,0,.609,1.688,2.154,2.154,0,0,0,1.564.589,2.114,2.114,0,0,0,1.544-.589,2.254,2.254,0,0,0,.6-1.688v-5.234h1.387Z" transform="translate(-802.184 -164.125)" fill="#fff"/>
          <path id="Path_2249" data-name="Path 2249" d="M1224.427,171.416h-3.887l-.615,1.439h-1.479l3.808-8.78h.471l3.808,8.78h-1.492Zm-1.936-4.776-1.439,3.585h2.865Z" transform="translate(-805.176 -164.076)" fill="#fff"/>
          <path id="Path_2250" data-name="Path 2250" d="M1233.176,171.661h3.952V172.9h-5.339v-8.635h1.387Z" transform="translate(-808.532 -164.125)" fill="#fff"/>
          <path id="Path_2251" data-name="Path 2251" d="M1245.539,164.5a3.079,3.079,0,0,1,1.139,1.119l-.969.746a2.1,2.1,0,0,0-1.819-1.047,1.569,1.569,0,0,0-.93.269.892.892,0,0,0-.38.778.847.847,0,0,0,.276.68,4.486,4.486,0,0,0,.929.549l.968.445a4.818,4.818,0,0,1,1.557,1.046,2.025,2.025,0,0,1,.51,1.414,2.249,2.249,0,0,1-.818,1.812,3.113,3.113,0,0,1-2.074.687,3.712,3.712,0,0,1-1.91-.5,3.637,3.637,0,0,1-1.348-1.373l.981-.746a2.738,2.738,0,0,0,2.264,1.374,1.686,1.686,0,0,0,1.079-.327,1.063,1.063,0,0,0,.412-.877.913.913,0,0,0-.295-.719,4.131,4.131,0,0,0-.974-.576l-.955-.445a4.636,4.636,0,0,1-1.486-.995,1.961,1.961,0,0,1-.529-1.4,2.091,2.091,0,0,1,.784-1.694,2.944,2.944,0,0,1,1.937-.648A3.226,3.226,0,0,1,1245.539,164.5Z" transform="translate(-810.767 -164.076)" fill="#fff"/>
        </g>
      </g>
    </g>
  </g>
</svg>
